<?xml version="1.0" encoding="utf-8"?>
<!-- Generator: Adobe Illustrator 23.1.1, SVG Export Plug-In . SVG Version: 6.00 Build 0)  -->
<svg version="1.1" id="Layer_1" xmlns="http://www.w3.org/2000/svg" xmlns:xlink="http://www.w3.org/1999/xlink" x="0px" y="0px"
	 viewBox="0 0 800 800" style="enable-background:new 0 0 800 800;" xml:space="preserve">
<g>
	<path d="M397.1,430.4h5.2c43.8,1,85.7-17.3,115.1-49.8c62.9-70.8,52.4-192.3,51.3-203.8c2.2-60-28-116.6-79.2-148
		c-26.8-15-57-22.9-87.8-23h-2.9c-30.6-0.1-60.8,7.6-87.8,22.3c-51.7,31.3-82.3,88.3-80.1,148.7c-1.1,11.6-11.6,132.9,51.3,203.8
		C311.3,413.3,353.4,431.4,397.1,430.4z M274.5,180.9L274.5,180.9c0-0.5,0-1,0-1.4C279.9,62.6,362.9,50,398.6,50h1.9
		c44.1,1,118.9,18.9,124.1,129.5c-0.1,0.4-0.1,0.8,0,1.4c0,1.1,11.6,112.1-40.3,170.5c-21.4,23.5-52.2,36.3-84.1,35h-1.6
		c-31.8,1.5-62.6-11.3-84-35C263.3,293.4,274.3,182,274.5,180.9z"/>
	<path d="M661.2,495.3l-1.6-0.5c-48.2-13.2-93.9-34-135.4-61.6c-9.9-7.1-23.7-4.8-30.8,5.2c-7.1,9.9-4.8,23.7,5.2,30.8
		c0.1,0,0.1,0.1,0.3,0.1c45.7,30.5,95.9,53.5,149,67.9c38,13.5,42.3,54.2,43.4,91.4c-0.1,1.4-0.1,2.7,0,4.1
		c0.3,16.9-0.8,33.7-3.4,50.5c-88.9,45.9-187.8,69-287.8,66.9c-100,1.8-198.9-21.2-287.9-67.1c-2.7-16.6-3.8-33.6-3.4-50.5
		c0-1.4,0-2.6,0-4.1c1.1-37.3,5.4-77.8,43.4-91.4c52.9-14.6,103.3-37.4,149-67.9c9.9-6.9,12.5-20.7,5.6-30.6
		c-6.9-9.9-20.7-12.5-30.6-5.6c-0.1,0-0.1,0.1-0.3,0.1c-41.5,27.8-87.4,48.6-135.4,61.6l-1.6,0.5c-70.8,24.4-72.9,99.9-73.9,132
		c0.1,1.4,0.1,2.7,0,4.1v0.5c-1,24.9,1.9,49.8,8.3,73.9c1.6,4.2,4.6,7.9,8.4,10.3c97.2,54.3,207.2,81.2,318.5,78
		c111.3,3.1,221.4-23.8,318.5-78c3.8-2.4,6.8-6.1,8.4-10.3c6.1-24.1,8.8-49,7.9-73.7v-0.5c0-1.4,0-2.6,0-4.1
		C734.1,594.9,731.9,519.4,661.2,495.3z"/>
</g>
</svg>
