<?xml version="1.0" encoding="utf-8"?>
<!-- Generator: Adobe Illustrator 23.1.1, SVG Export Plug-In . SVG Version: 6.00 Build 0)  -->
<svg version="1.1" id="Layer_1" xmlns="http://www.w3.org/2000/svg" xmlns:xlink="http://www.w3.org/1999/xlink" x="0px" y="0px"
	 viewBox="0 0 800 309.6" style="enable-background:new 0 0 800 309.6;" xml:space="preserve">
<path d="M737.2,170.2c0,0,6.9-25.3,6.9-51.7c0,0-27.6,51.7-65.5,51.7c-77,0-93-144.7-206.8-144.7c-49.3,0-72.2,37.7-72.4,37.9
	c-5.2-7.4-28.2-36.2-71.2-36.2c-113.7,0-129.8,144.7-206.8,144.7c-37.9,0-65.5-51.7-65.5-51.7c0,26.4,6.9,51.7,6.9,51.7
	c-20.7-9.2-37.9-27.6-52.8-55.1c3.4,88.5,77,165.4,191.8,165.4s198.7-113.7,198.7-113.7v-0.2c10.4,13.4,90.5,112.2,197.6,112.2
	c114.9,0,188.4-77,191.8-165.4C775.1,142.6,757.8,161,737.2,170.2z"/>
</svg>
