<?xml version="1.0" encoding="utf-8"?>
<!-- Generator: Adobe Illustrator 23.1.1, SVG Export Plug-In . SVG Version: 6.00 Build 0)  -->
<svg version="1.1" id="Layer_1" xmlns="http://www.w3.org/2000/svg" xmlns:xlink="http://www.w3.org/1999/xlink" x="0px" y="0px"
	 viewBox="0 0 800 800" style="enable-background:new 0 0 800 800;" xml:space="preserve">
<path d="M612.3,497.9c29.2-47.3,46.4-102.8,46.4-162.5c0-166.5-131.4-301.9-296-309.3c-4.7-0.2-9.3-0.7-14-0.7
	c-7.1,0-14.1,0.6-21,1.1C178.3,36.6,58.1,152,40.9,299.3c-1.4,11.9-2.3,23.9-2.3,36.2c0,11.6,0.8,23,2,34.2
	c17.1,155.1,148.4,275.8,308,275.8c59.7,0,115.2-17.1,162.5-46.4l168.5,168.5l101.2-101.2L612.3,497.9z M348.6,550
	C230.3,550,134,453.8,134,335.4s96.3-214.6,214.6-214.6s214.6,96.3,214.6,214.6S467,550,348.6,550z"/>
</svg>
